<svg id="Ebene_1" data-name="Ebene 1" xmlns="http://www.w3.org/2000/svg" viewBox="0 0 87.3 105.68"><defs><style>.cls-1,.cls-2{fill:#1d1d1b;stroke:#1d1d1b;stroke-miterlimit:10;}.cls-2{stroke-width:0.5px;}.cls-3{font-size:54.84px;fill:#f6f6f6;font-family:MyriadPro-Regular, Myriad Pro;}</style></defs><path class="cls-1" d="M182.87,95.37a40.75,40.75,0,0,1-17.93,33.72A33.75,33.75,0,0,1,156.7,134c-12.7,6-27.7,2-37.7-7-10-10-17-24-16-37.52a35.8,35.8,0,0,1,1.75-8.61A39.43,39.43,0,0,1,108,73c7-12,20-20,34.2-18.3a40.59,40.59,0,0,1,40.67,40.67Z" transform="translate(-96.08 -53.97)"/><path class="cls-2" d="M104,89.45C107,98,112,107,117,116c-7-2-16,2-20-2-3-4,5-11,4.74-17.72C102.85,92.87,104,89.45,104,89.45Z" transform="translate(-96.08 -53.97)"/><rect class="cls-1" x="28.09" y="60.12" width="45.06" height="45.06" rx="12.07"/><text class="cls-3" transform="translate(32.11 60.74) scale(1.41 1)">?</text><path class="cls-1" d="M105.77,111.46c-3.06,14.23-1.53,25.39,4.31,26.88,3.89,1,12.32-1.66,18.38-3.57,1.67-.52,3-1,3.9-1.32" transform="translate(-96.08 -53.97)"/></svg>